<svg xmlns="http://www.w3.org/2000/svg" viewBox="0 0 400 400" width="400" height="400"><defs><linearGradient id="g" x1="0" y1="0" x2="1" y2="1"><stop offset="0" stop-color="#e5ecfd"/><stop offset="1" stop-color="#c6d6fa"/></linearGradient></defs><rect width="400" height="400" rx="40" fill="url(#g)"/><ellipse cx="200" cy="350" rx="130" ry="14" fill="#0f172a14"/><path d="M70 270c0-40 20-70 60-80l70-60 40 60c40 10 90 20 100 50 10 25 0 40-20 40H90c-12 0-20-4-20-10z" fill="#2563eb"/><path d="M70 285h290v20H90c-12 0-20-8-20-20z" fill="#fff"/><path d="M175 165l22 22M195 150l22 22M215 140l22 22" stroke="#fff" stroke-width="7" stroke-linecap="round"/><path d="M250 230c30 6 60 12 80 22" stroke="#719af2" stroke-width="10" fill="none" stroke-linecap="round"/></svg>
